<?xml version="1.0" standalone="no"?>
<!DOCTYPE svg PUBLIC "-//W3C//DTD SVG 20010904//EN"
 "http://www.w3.org/TR/2001/REC-SVG-20010904/DTD/svg10.dtd">
<svg version="1.0" xmlns="http://www.w3.org/2000/svg"
 width="849.000000pt" height="849.000000pt" viewBox="0 0 849.000000 849.000000"
 preserveAspectRatio="xMidYMid meet">

<g transform="translate(0.000000,849.000000) scale(0.100000,-0.100000)"
fill="#000000" stroke="none">
<path d="M3798 7475 c-1 -1 -39 -6 -83 -10 -44 -3 -147 -20 -230 -36 -397 -78
-736 -235 -1065 -495 -153 -121 -441 -429 -497 -531 -26 -48 -9 -60 54 -39 90
30 256 57 388 63 72 3 128 3 125 1 -3 -3 -38 -19 -79 -36 -392 -164 -838 -640
-1096 -1170 -65 -135 -55 -143 69 -56 108 75 386 248 391 243 2 -2 -7 -36 -20
-74 -33 -98 -72 -296 -92 -466 -18 -160 -24 -683 -10 -939 9 -168 41 -489 63
-640 9 -58 19 -129 23 -158 4 -29 12 -57 17 -61 5 -5 124 -95 264 -201 140
-105 268 -201 284 -213 16 -12 68 -51 116 -87 88 -65 715 -537 1455 -1095
1061 -800 1027 -775 1067 -775 42 0 61 20 162 168 44 66 56 91 56 122 0 21
-45 196 -99 387 -55 191 -165 578 -244 858 -378 1329 -361 1264 -338 1352 27
101 134 202 234 222 93 19 102 19 181 5 190 -33 335 -181 382 -390 37 -163 28
-459 -22 -747 -13 -76 -24 -140 -24 -142 0 -8 1024 -5 1036 3 6 4 26 30 45 57
20 28 124 177 232 332 108 154 197 288 197 295 0 8 -9 44 -20 79 -33 106 -151
501 -165 549 -17 63 -335 1127 -400 1340 -108 355 -315 1056 -315 1065 0 6
133 104 295 219 169 120 297 218 301 229 10 31 -19 49 -258 169 -366 184 -600
282 -917 388 -336 111 -671 184 -971 210 -110 9 -483 14 -492 5z m1859 -594
c159 -33 414 -124 396 -142 -9 -9 -144 -82 -333 -181 -63 -34 -133 -71 -155
-83 -22 -13 -89 -49 -150 -81 -160 -84 -168 -88 -167 -98 1 -10 63 -31 196
-67 70 -19 80 -25 91 -53 14 -33 101 -284 220 -636 69 -203 258 -755 365
-1065 351 -1018 332 -957 337 -1051 10 -147 -9 -195 -178 -454 l-112 -170
-335 0 -334 0 6 33 c35 171 40 223 40 382 -1 191 -13 266 -64 389 -41 99 -97
184 -162 248 -29 28 -138 107 -242 175 -583 383 -730 558 -762 909 -8 82 10
223 37 303 11 30 37 88 59 129 23 42 39 81 36 89 -12 29 -182 -10 -296 -67
-148 -74 -252 -214 -301 -405 -20 -75 -24 -115 -23 -240 0 -144 1 -156 41
-305 23 -85 85 -324 137 -530 52 -206 127 -501 166 -655 76 -299 285 -1123
380 -1497 31 -126 55 -228 52 -228 -6 0 -169 124 -757 575 -121 93 -285 218
-365 279 -80 60 -203 155 -275 211 -71 55 -205 158 -297 228 -290 222 -439
388 -589 652 -140 247 -231 526 -270 830 -17 133 -14 409 5 555 103 767 469
1320 1099 1659 120 65 125 80 35 110 -83 27 -162 46 -288 71 -57 11 -106 22
-108 25 -14 13 251 97 408 129 181 36 263 44 470 44 207 0 279 -7 460 -44 118
-24 329 -84 358 -103 8 -5 -54 -11 -150 -14 -180 -6 -198 -9 -343 -39 -657
-136 -1197 -606 -1466 -1275 -42 -103 -97 -282 -124 -403 -45 -196 -73 -434
-54 -456 6 -8 15 -11 20 -8 6 3 48 81 94 172 130 256 177 343 182 338 2 -2 -4
-53 -13 -113 -26 -151 -26 -466 -1 -618 40 -242 110 -465 214 -685 56 -118
169 -308 222 -370 47 -56 48 -20 2 167 -96 398 -134 677 -134 993 -1 258 15
400 66 595 88 335 257 586 504 752 96 64 234 128 347 159 170 49 146 74 -124
128 -41 8 -118 22 -170 31 -52 8 -110 18 -127 21 -18 2 -33 8 -33 13 0 17 244
129 362 165 200 61 380 82 633 73 202 -8 205 -7 246 60 156 258 383 421 644
464 75 12 268 2 372 -20z"/>
<path d="M5465 5380 c-3 -5 -14 -60 -25 -122 -57 -335 -60 -368 -35 -439 20
-55 58 -105 96 -124 48 -25 223 -65 234 -54 9 9 -7 64 -80 269 -15 41 -55 156
-90 256 -75 217 -85 238 -100 214z"/>
</g>
</svg>
